<?xml version="1.0" encoding="UTF-8"?><!DOCTYPE svg PUBLIC "-//W3C//DTD SVG 1.1//EN" "http://www.w3.org/Graphics/SVG/1.1/DTD/svg11.dtd"><svg xmlns="http://www.w3.org/2000/svg" xmlns:xlink="http://www.w3.org/1999/xlink" height="281" viewBox="0 0 172 281" width="172"><svg height="41.49" viewBox="0 0 152 42" width="151.7" x="10" y="10"><defs><style>.cls-1{fill:#34373c;}</style></defs><title>oneills-new-branding-wordmark</title><g id="Layer_2" data-name="Layer 2"><g id="Layer_1-2" data-name="Layer 1"><path class="cls-1" d="M0,27.17a14.26,14.26,0,0,1,1.18-5.9,13.59,13.59,0,0,1,3.23-4.51,14.16,14.16,0,0,1,4.83-2.9,17.24,17.24,0,0,1,5.92-1,17.28,17.28,0,0,1,5.92,1,14.35,14.35,0,0,1,4.83,2.9,13.59,13.59,0,0,1,3.23,4.51,14.42,14.42,0,0,1,1.18,5.9,14.34,14.34,0,0,1-1.18,5.89,13.53,13.53,0,0,1-3.23,4.52,14.35,14.35,0,0,1-4.83,2.9,17.28,17.28,0,0,1-5.92,1,17.24,17.24,0,0,1-5.92-1,14.16,14.16,0,0,1-4.83-2.9,13.53,13.53,0,0,1-3.23-4.52A14.18,14.18,0,0,1,0,27.17Zm8.42,0a7.07,7.07,0,0,0,1.77,5,6.46,6.46,0,0,0,5,1.91,6.46,6.46,0,0,0,5-1.91,7.07,7.07,0,0,0,1.77-5,7.07,7.07,0,0,0-1.77-5,6.46,6.46,0,0,0-5-1.91,6.46,6.46,0,0,0-5,1.91A7.07,7.07,0,0,0,8.42,27.17Z"/><path class="cls-1" d="M33,13.53H41.1v3.7h.11a6.94,6.94,0,0,1,1.12-1.57,8.41,8.41,0,0,1,1.74-1.4,9.64,9.64,0,0,1,2.3-1,9.36,9.36,0,0,1,2.81-.4,11.56,11.56,0,0,1,5.17,1,7.43,7.43,0,0,1,3.06,2.72,10.92,10.92,0,0,1,1.48,4.1,30.19,30.19,0,0,1,.4,5.11v15H50.87V27.45c0-.79,0-1.6-.09-2.44a7.55,7.55,0,0,0-.5-2.33A4.1,4.1,0,0,0,49,20.94a4,4,0,0,0-2.5-.68,5.21,5.21,0,0,0-2.64.59,4.05,4.05,0,0,0-1.55,1.58,6.44,6.44,0,0,0-.7,2.21,19.65,19.65,0,0,0-.17,2.59V40.81H33Z"/><path class="cls-1" d="M88.82,36.1a13.4,13.4,0,0,1-5.11,4,15.24,15.24,0,0,1-6.4,1.41,17.24,17.24,0,0,1-5.92-1,14.16,14.16,0,0,1-4.83-2.9,13.53,13.53,0,0,1-3.23-4.52,14.18,14.18,0,0,1-1.18-5.89,14.26,14.26,0,0,1,1.18-5.9,13.59,13.59,0,0,1,3.23-4.51,14.16,14.16,0,0,1,4.83-2.9,17.24,17.24,0,0,1,5.92-1,13.53,13.53,0,0,1,5.3,1,11.07,11.07,0,0,1,4,2.9,13.25,13.25,0,0,1,2.55,4.51,18.22,18.22,0,0,1,.9,5.9v2.64H70.57a6.67,6.67,0,0,0,2.19,3.84,6.18,6.18,0,0,0,4.16,1.44,6.33,6.33,0,0,0,3.51-.93,9.4,9.4,0,0,0,2.49-2.39Zm-7.13-12a4.85,4.85,0,0,0-1.41-3.65,5,5,0,0,0-3.76-1.51,6.33,6.33,0,0,0-2.47.45,6.08,6.08,0,0,0-1.82,1.15,5,5,0,0,0-1.18,1.62,5.48,5.48,0,0,0-.48,1.94Z"/><path class="cls-1" d="M92.41,4.94a4.74,4.74,0,0,1,1.43-3.46,4.89,4.89,0,0,1,6.91,0,4.74,4.74,0,0,1,1.43,3.46,4.74,4.74,0,0,1-1.43,3.45,4.89,4.89,0,0,1-6.91,0A4.74,4.74,0,0,1,92.41,4.94Zm.68,8.59h8.42V40.81H93.09Z"/><path class="cls-1" d="M105.44,0h8.42V40.81h-8.42Z"/><path class="cls-1" d="M117.79,0h8.42V40.81h-8.42Z"/><path class="cls-1" d="M145.47,21.56a6,6,0,0,0-4.89-2.31,4.59,4.59,0,0,0-2.08.51,1.8,1.8,0,0,0-1,1.74,1.58,1.58,0,0,0,1,1.49,13.73,13.73,0,0,0,2.64.84l3.43.79A13.23,13.23,0,0,1,148,25.93a7.64,7.64,0,0,1,2.64,2.45,7.29,7.29,0,0,1,1,4.12,7.69,7.69,0,0,1-1.15,4.35,8.86,8.86,0,0,1-3,2.76,13,13,0,0,1-4,1.46,24.16,24.16,0,0,1-4.44.42,21.57,21.57,0,0,1-5.78-.82,10.73,10.73,0,0,1-4.94-2.89l5.11-5.67a8.46,8.46,0,0,0,2.61,2.22,7.09,7.09,0,0,0,3.34.76,7.62,7.62,0,0,0,2.64-.43,1.55,1.55,0,0,0,1.18-1.54,1.72,1.72,0,0,0-1-1.6,11.88,11.88,0,0,0-2.64-.9l-3.42-.78a14.23,14.23,0,0,1-3.43-1.27,7.09,7.09,0,0,1-2.64-2.38,7.32,7.32,0,0,1-1-4.13,8.25,8.25,0,0,1,1-4.15A8.58,8.58,0,0,1,132.64,15a10.93,10.93,0,0,1,3.68-1.65,16.59,16.59,0,0,1,4.21-.54,19.89,19.89,0,0,1,5.44.79,10,10,0,0,1,4.66,2.81Z"/><path class="cls-1" d="M30.27,10.63a.25.25,0,0,0,0-.07A2.74,2.74,0,0,0,25.35,13a.16.16,0,0,1,0,.07l4.88,3.57Z"/></g></g></svg><svg height="35.95" viewBox="0 0 129 36" width="128.07" x="10" y="62"><defs><style>.cls-1{fill:#ffd500}.cls-2{fill:#f59c00}.cls-3{fill:#e63323}.cls-4{fill:#e4003a}.cls-5{fill:#fcea10}.cls-6{fill:#d3d92b}.cls-7{fill:#e6007e}.cls-8{fill:none}.cls-9{fill:#fff}.cls-10{fill:#13100d}.cls-11{fill:#ffed00}</style></defs><title>icreate</title><g id="Layer_2" data-name="Layer 2"><g id="Layer_1-2" data-name="Layer 1"><path class="cls-1" d="M31.98 28.97l-.02-.01-.01-.08.03.09z"/><path class="cls-2" d="M31.98 28.97l-.02-.01-.01-.08.03.09z"/><path class="cls-3" d="M31.98 28.97l-.02-.01-.01-.08.03.09z"/><path class="cls-4" d="M31.98 28.97l-.02-.01-.01-.08.03.09z"/><path class="cls-5" d="M27.74 23.43l.6 4.99-19.15-2.9-8.4-1.27-.22-.03v-.01l-.04-.01.74-3.13.64-2.72.72-3.07.89-3.78L0 9.81l5.72-7.65 4.17-.47 1.87 2.12 1.54 1.75L18.14.77l6.68-.75L25 0l4.35 6.05 3.36 4.67.03 2.12-5.98 2.35.02.14.96 8.1z"/><path class="cls-2" d="M28.34 28.42l.52 4.38-14.44-2.92L4.93 26 .71 24.28l-.14-.06v-.01l-.04-.01.74-3.13.64-2.72L24.82.02 25 0l4.35 6.05 3.36 4.67 1.2 1.66-1.17.46-5.98 2.35.02.14.96 8.1.6 4.99z"/><path class="cls-6" d="M2.63 15.28l.89-3.77L0 9.81l5.72-7.65 4.17-.47 1.87 2.12C9.11 7.27 4.7 13 2.63 15.28z"/><path class="cls-3" d="M28.86 32.8l.38 3.15-14.82-6.07L4.93 26 .71 24.28l-.14-.06v-.01l-.04-.01.74-3.13L29.35 6.05l3.36 4.67 1.2 1.66-1.17.46-5.98 2.35.02.14.96 8.1.6 4.99.52 4.38z"/><path class="cls-4" d="M28.86 32.8l.38 3.15-14.82-6.07L4.93 26 .71 24.28l.08-.03 25.99-8.92.96 8.1.6 4.99.52 4.38z"/><path class="cls-7" d="M28.86 32.8l.38 3.15-14.82-6.07L4.93 26l4.26-.48 18.55-2.09.6 4.99.52 4.38z"/><path class="cls-8" d="M32.74 12.84l-5.98 2.35.02.14.96 8.1.6 4.99.52 4.38.38 3.15-14.82-6.07L4.93 26 .71 24.28l-.14-.06v-.01l-.04-.01.74-3.13.64-2.72.72-3.07.89-3.78L0 9.81l5.72-7.65 4.17-.47 1.87 2.12 1.54 1.75L18.14.77l6.68-.75L25 0l4.35 6.05 3.36 4.67 1.2 1.66-1.17.46z"/><path class="cls-9" d="M11.39 19.43a6.85 6.85 0 0 0-.6 1.23 3.76 3.76 0 0 0-.25 1.24 1 1 0 0 0 .48.92 3.29 3.29 0 0 0 2.1.39 16.05 16.05 0 0 0 2.83-.51 24.66 24.66 0 0 0 2.86-1q1.37-.55 2.15-.91l.83-.32a.89.89 0 0 1 .85.07c.25.17.34.35.26.55a3.18 3.18 0 0 1-.32.6 1.41 1.41 0 0 1-.41.38 5.28 5.28 0 0 1-.65.36l-.69.3-.55.21q-1 .4-2.54.89a23.17 23.17 0 0 1-3.14.76 15.76 15.76 0 0 1-3.12.24A4.68 4.68 0 0 1 9 24.17a2.82 2.82 0 0 1-1.33-1.89 6 6 0 0 1 .09-2.38 10 10 0 0 1 .91-2.43q.63-1.18 1.18-2a15.37 15.37 0 0 1 1.81-2.19 25.2 25.2 0 0 1 2.06-1.92 6.24 6.24 0 0 1 2.06-1.1 2.64 2.64 0 0 1 2.25.49.9.9 0 0 1 .32 1.4 4.3 4.3 0 0 1-.72.8q-.47.42-1 .84l-1.1.84q-.55.42-.94.76A19.58 19.58 0 0 0 12 18.51q-.26.34-.61.92zm12-12.78a1.83 1.83 0 0 1-.3 1.24 2.49 2.49 0 0 1-1.44 1A1.94 1.94 0 0 1 20 8.68a1.36 1.36 0 0 1-.65-1.06 1.89 1.89 0 0 1 .32-1.22 2.58 2.58 0 0 1 1.41-1 1.86 1.86 0 0 1 1.69.2 1.42 1.42 0 0 1 .64 1.05z"/><path class="cls-10" d="M40.28 34a2.33 2.33 0 0 1-1.68.61h-2.27v-6.75h2.26a2.33 2.33 0 0 1 1.68.61 3.62 3.62 0 0 1 .65 2.66c.01.87.08 2.17-.64 2.87zm-.36-5.15a1.93 1.93 0 0 0-1.45-.52h-1.63v5.83h1.63a1.94 1.94 0 0 0 1.45-.52c.54-.55.5-1.74.5-2.49a3.35 3.35 0 0 0-.5-2.31zm3.58 5.75v-6.74h4.09v.45H44V31h3v.45h-3v2.72h3.58v.45zm8.1.05a2.84 2.84 0 0 1-2.24-.89l.36-.36a2.35 2.35 0 0 0 1.91.79c1.06 0 1.73-.51 1.73-1.39a1.22 1.22 0 0 0-.37-.95 1.63 1.63 0 0 0-1-.36l-.79-.12a2.33 2.33 0 0 1-1.2-.49 1.53 1.53 0 0 1-.53-1.24 1.84 1.84 0 0 1 2.09-1.85 2.66 2.66 0 0 1 1.94.73l-.33.33a2.19 2.19 0 0 0-1.64-.62 1.37 1.37 0 0 0-1.53 1.4 1.08 1.08 0 0 0 .35.88 2.15 2.15 0 0 0 1 .42l.73.11a2.15 2.15 0 0 1 1.2.44 1.66 1.66 0 0 1 .59 1.31c0 1.14-.87 1.86-2.27 1.86zm4.63-.05v-6.74h.51v6.74zm7.16-.72a2.4 2.4 0 0 1-3.45.08c-.61-.61-.62-1.21-.62-2.73s0-2.12.62-2.73a2.38 2.38 0 0 1 1.68-.69 2.61 2.61 0 0 1 2 .94l-.34.34a2.13 2.13 0 0 0-1.67-.82 1.79 1.79 0 0 0-1.28.52c-.48.48-.52 1-.52 2.45s0 2 .52 2.45a1.77 1.77 0 0 0 1.28.52 1.81 1.81 0 0 0 1.4-.65 1.94 1.94 0 0 0 .41-1.33v-.61h-1.8v-.45h2.32v1.1a2.2 2.2 0 0 1-.55 1.61zm7.48.72L67 28.74v5.86h-.51v-6.74H67l3.89 5.84v-5.84h.51v6.74zm8.07-2.79v2.79h-.51v-2.79l-2-3.95H77l1.71 3.41 1.68-3.41h.55zM86.45 34a2.4 2.4 0 0 1-3.37 0c-.62-.61-.62-1.21-.62-2.73s0-2.12.62-2.73a2.4 2.4 0 0 1 3.37 0c.61.62.62 1.21.62 2.73s0 2.08-.62 2.73zM86 28.78a1.83 1.83 0 0 0-2.55 0c-.48.48-.52 1-.52 2.45s0 2 .52 2.45a1.83 1.83 0 0 0 2.55 0c.48-.48.52-1 .52-2.45s.01-1.97-.52-2.45zm5.87 5.87a2.18 2.18 0 0 1-2.31-2.24v-4.55h.51v4.48a1.8 1.8 0 1 0 3.6 0v-4.48h.51v4.55a2.18 2.18 0 0 1-2.31 2.24zm9.02-.05l-1.61-3.1h-1.85v3.1h-.51v-6.74h2.56a1.82 1.82 0 0 1 .38 3.62l1.63 3.11zm-1.48-6.28h-2V31h2a1.37 1.37 0 1 0 0-2.73zM110.79 34a2.4 2.4 0 0 1-3.37 0c-.62-.61-.62-1.21-.62-2.73s0-2.12.62-2.73a2.4 2.4 0 0 1 3.37 0c.61.62.62 1.21.62 2.73s0 2.08-.62 2.73zm-.41-5.19a1.83 1.83 0 0 0-2.56 0c-.48.48-.52 1-.52 2.45s0 2 .52 2.45a1.83 1.83 0 0 0 2.56 0c.48-.48.52-1 .52-2.45s-.03-2-.52-2.48zm8.57 5.79h-.52l-1.59-5.87-1.59 5.87h-.52L113 27.86h.54l1.46 5.86 1.57-5.86h.53l1.57 5.86 1.42-5.86h.54zm8.05 0l-3.89-5.86v5.86h-.51v-6.74h.51L127 33.7v-5.84h.51v6.74zM49.64 22.26c-2.95 0-6.63-1.71-6.63-5.59v-5.84c0-3.89 3.69-5.59 6.63-5.59s6.11 1.56 6.44 4.7c0 .59-.2.72-.77.72h-2.37c-.52 0-.54-.47-.74-.77a2.61 2.61 0 0 0-2.56-1.19 2.45 2.45 0 0 0-2.75 2.48v5.15a2.43 2.43 0 0 0 2.75 2.48c1.34 0 2.4-.5 2.6-1.68.07-.49.12-.89.67-.89h2.43c.54 0 .74.25.74.84 0 3.18-3.37 5.18-6.44 5.18zm21.52-.37h-2.93a1.32 1.32 0 0 1-1.23-.74l-2.67-4a1.83 1.83 0 0 1-.27-1.26v-2c0-.45.15-.72.72-.72h.49a2.22 2.22 0 0 0 2.35-2 2.1 2.1 0 0 0-2.28-2.1H62v12.1c0 .57-.27.72-.72.72h-2.4c-.45 0-.69-.15-.69-.72V6.35c0-.45.12-.72.69-.72h6.24c2.7 0 3.89.54 4.93 1.58a5.39 5.39 0 0 1 1.44 3.89A5.33 5.33 0 0 1 68 16l3.49 5.08c.26.37.14.81-.33.81zm15.05-2.74v2c0 .45-.15.72-.72.72H74.4c-.57 0-.72-.27-.72-.72V6.32c0-.45.15-.72.72-.72h10.67c.57 0 .72.27.72.72v2.06c0 .45-.15.72-.72.72h-7.48v2.7h6.63c.57 0 .72.27.72.72v1.93c0 .45-.15.72-.72.72h-6.63v3.27h7.9c.57-.01.72.26.72.71zm15.59 2.74h-2.6c-.54 0-.74-.15-.94-.74l-.69-2H91.5l-.69 2c-.2.59-.4.74-.94.74h-2.6c-.54 0-.54-.4-.42-.69l5.5-14.83a1 1 0 0 1 1-.77h2.38c.54 0 .79.25 1 .77l5.47 14.83c.15.3.15.69-.4.69zm-5.4-6.16l-1.86-5.47-1.86 5.47zm17.66-9.41v2.06c0 .45-.15.72-.72.72h-3.79v12.07c0 .57-.27.72-.72.72h-2.45c-.45 0-.72-.15-.72-.72V9.09h-3.81c-.57 0-.72-.27-.72-.72V6.32c0-.45.15-.72.72-.72h11.49c.57 0 .72.28.72.72zm14.01 12.83v2c0 .45-.15.72-.72.72h-11.09c-.57 0-.72-.27-.72-.72V6.32c0-.45.15-.72.72-.72h10.67c.57 0 .72.27.72.72v2.06c0 .45-.15.72-.72.72h-7.48v2.7h6.63c.57 0 .72.27.72.72v1.93c0 .45-.15.72-.72.72h-6.63v3.27h7.9c.57-.01.72.26.72.71zM36.52 9.59v12c0 .57.27.72.72.72h2.45c.45 0 .72-.15.72-.72v-12z"/><circle class="cls-10" cx="38.46" cy="6.38" r="1.94"/><path class="cls-7" d="M36.34 24.93h15.31v.47H36.34z"/><path class="cls-4" d="M51.23 24.93h15.31v.47H51.23z"/><path class="cls-3" d="M66.54 24.93h15.31v.47H66.54z"/><path class="cls-2" d="M81.85 24.93h15.31v.47H81.85z"/><path class="cls-11" d="M97.06 24.93h15.31v.47H97.06z"/><path class="cls-6" d="M112.43 24.93h15.31v.47h-15.31z"/></g></g></svg><svg height="41.6" viewBox="0 0 42 42" width="41.6" x="10" y="108"><defs><style>.cls-1{fill:#00aa9e;}</style></defs><title>confirmation-tick</title><g id="Layer_2" data-name="Layer 2"><g id="Layer_1-2" data-name="Layer 1"><path class="cls-1" d="M20.8,0A20.8,20.8,0,1,0,41.6,20.8,20.83,20.83,0,0,0,20.8,0ZM32.39,13.86,19.6,28.26a1.6,1.6,0,0,1-2.2.19l-8-6.4a1.6,1.6,0,0,1,2-2.5L18.21,25,30,11.73a1.6,1.6,0,0,1,2.39,2.13Zm0,0"/></g></g></svg><svg height="20" viewBox="0 0 13 20" width="12.08" x="10" y="160"><defs id="defs4"><style id="style6">.cls-1{fill:#34373c}</style></defs><title id="title8">right-arrow</title><g id="Layer_2" data-name="Layer 2" transform="matrix(-1 0 0 1 12.08 0)"><g id="Layer_1-2" data-name="Layer 1"><path class="cls-1" d="M1.17 0l10.91 10L1.17 20 0 18.56 9.25 10 0 1.44z" id="path12" fill="#34373c"/></g></g></svg><svg height="20" viewBox="0 0 13 20" width="12.08" x="10" y="190"><defs><style>.cls-1{fill:#34373c}</style></defs><title>right-arrow</title><g id="Layer_2" data-name="Layer 2"><path class="cls-1" d="M1.17 0l10.91 10L1.17 20 0 18.56 9.25 10 0 1.44z" id="Layer_1-2" data-name="Layer 1"/></g></svg><svg height="11.34" viewBox="0 0 12 12" width="11.34" x="10" y="220"><defs><style>.cls-1{fill:#34373c}</style></defs><title>facebook-ico</title><path class="cls-1" d="M355.89 292a5.67 5.67 0 1 0 5.67 5.67 5.67 5.67 0 0 0-5.67-5.67zm1.47 5.67h-.93v3.4h-1.27v-3.4h-.86v-1.17h.85v-.69c0-1 .26-1.54 1.39-1.54h.94v1.17h-.59c-.44 0-.46.17-.46.47v.58h1.05zm0 0" transform="translate(-350.22 -292.01)"/></svg><svg height="11.34" viewBox="0 0 12 12" width="11.34" x="10" y="242"><defs><style>.cls-1{fill:#34373c}</style></defs><title>instagram-ico</title><circle class="cls-1" cx="5.73" cy="5.68" r="1.16"/><path class="cls-1" d="M425.23 295h-3.07a1.29 1.29 0 0 0-1.28 1.28v3.07a1.29 1.29 0 0 0 1.28 1.28h3.07a1.29 1.29 0 0 0 1.28-1.28v-3.07a1.29 1.29 0 0 0-1.28-1.28zm-1.54 4.59a1.77 1.77 0 1 1 1.77-1.77 1.77 1.77 0 0 1-1.77 1.81zm2.16-3.29a.45.45 0 1 1 .15-.3.45.45 0 0 1-.15.34z" transform="translate(-417.96 -292.18)"/><path class="cls-1" d="M423.63 292.18a5.67 5.67 0 1 0 5.67 5.67 5.67 5.67 0 0 0-5.67-5.67zm3.49 7.22a1.89 1.89 0 0 1-1.89 1.89h-3.07a1.89 1.89 0 0 1-1.89-1.89v-3.07a1.89 1.89 0 0 1 1.89-1.89h3.07a1.89 1.89 0 0 1 1.89 1.89v3.07z" transform="translate(-417.96 -292.18)"/></svg><svg height="6.91" viewBox="0 0 4 7" width="3.74" x="10" y="264"><defs><style>.cls-1{fill:#34373c}</style></defs><title>facebook-share</title><g id="Layer_2" data-name="Layer 2"><path class="cls-1" d="M3.6 0h-.9A1.57 1.57 0 0 0 1 1.7v.78H.14a.14.14 0 0 0-.14.15v1.13a.14.14 0 0 0 .14.14H1v2.87a.14.14 0 0 0 .14.14h1.22a.14.14 0 0 0 .14-.14V3.9h1.05a.14.14 0 0 0 .14-.14V2.63a.14.14 0 0 0 0-.1.14.14 0 0 0-.1 0H2.5v-.71c0-.32.08-.48.49-.48h.6a.14.14 0 0 0 .14-.14V.14A.14.14 0 0 0 3.6 0zm0 0" id="Layer_1-2" data-name="Layer 1"/></g></svg></svg>