<svg xmlns="http://www.w3.org/2000/svg" viewBox="0 0 3.74 6.91"><defs><style>.cls-1{fill:#34373c}</style></defs><title>facebook-share</title><g id="Layer_2" data-name="Layer 2"><path class="cls-1" d="M3.6 0h-.9A1.57 1.57 0 0 0 1 1.7v.78H.14a.14.14 0 0 0-.14.15v1.13a.14.14 0 0 0 .14.14H1v2.87a.14.14 0 0 0 .14.14h1.22a.14.14 0 0 0 .14-.14V3.9h1.05a.14.14 0 0 0 .14-.14V2.63a.14.14 0 0 0 0-.1.14.14 0 0 0-.1 0H2.5v-.71c0-.32.08-.48.49-.48h.6a.14.14 0 0 0 .14-.14V.14A.14.14 0 0 0 3.6 0zm0 0" id="Layer_1-2" data-name="Layer 1"/></g></svg>