<svg xmlns="http://www.w3.org/2000/svg" viewBox="0 0 128.07 35.95"><defs><style>.cls-1{fill:#ffd500}.cls-2{fill:#f59c00}.cls-3{fill:#e63323}.cls-4{fill:#e4003a}.cls-5{fill:#fcea10}.cls-6{fill:#d3d92b}.cls-7{fill:#e6007e}.cls-8{fill:none}.cls-9{fill:#fff}.cls-10{fill:#13100d}.cls-11{fill:#ffed00}</style></defs><title>icreate</title><g id="Layer_2" data-name="Layer 2"><g id="Layer_1-2" data-name="Layer 1"><path class="cls-1" d="M31.98 28.97l-.02-.01-.01-.08.03.09z"/><path class="cls-2" d="M31.98 28.97l-.02-.01-.01-.08.03.09z"/><path class="cls-3" d="M31.98 28.97l-.02-.01-.01-.08.03.09z"/><path class="cls-4" d="M31.98 28.97l-.02-.01-.01-.08.03.09z"/><path class="cls-5" d="M27.74 23.43l.6 4.99-19.15-2.9-8.4-1.27-.22-.03v-.01l-.04-.01.74-3.13.64-2.72.72-3.07.89-3.78L0 9.81l5.72-7.65 4.17-.47 1.87 2.12 1.54 1.75L18.14.77l6.68-.75L25 0l4.35 6.05 3.36 4.67.03 2.12-5.98 2.35.02.14.96 8.1z"/><path class="cls-2" d="M28.34 28.42l.52 4.38-14.44-2.92L4.93 26 .71 24.28l-.14-.06v-.01l-.04-.01.74-3.13.64-2.72L24.82.02 25 0l4.35 6.05 3.36 4.67 1.2 1.66-1.17.46-5.98 2.35.02.14.96 8.1.6 4.99z"/><path class="cls-6" d="M2.63 15.28l.89-3.77L0 9.81l5.72-7.65 4.17-.47 1.87 2.12C9.11 7.27 4.7 13 2.63 15.28z"/><path class="cls-3" d="M28.86 32.8l.38 3.15-14.82-6.07L4.93 26 .71 24.28l-.14-.06v-.01l-.04-.01.74-3.13L29.35 6.05l3.36 4.67 1.2 1.66-1.17.46-5.98 2.35.02.14.96 8.1.6 4.99.52 4.38z"/><path class="cls-4" d="M28.86 32.8l.38 3.15-14.82-6.07L4.93 26 .71 24.28l.08-.03 25.99-8.92.96 8.1.6 4.99.52 4.38z"/><path class="cls-7" d="M28.86 32.8l.38 3.15-14.82-6.07L4.93 26l4.26-.48 18.55-2.09.6 4.99.52 4.38z"/><path class="cls-8" d="M32.74 12.84l-5.98 2.35.02.14.96 8.1.6 4.99.52 4.38.38 3.15-14.82-6.07L4.93 26 .71 24.28l-.14-.06v-.01l-.04-.01.74-3.13.64-2.72.72-3.07.89-3.78L0 9.81l5.72-7.65 4.17-.47 1.87 2.12 1.54 1.75L18.14.77l6.68-.75L25 0l4.35 6.05 3.36 4.67 1.2 1.66-1.17.46z"/><path class="cls-9" d="M11.39 19.43a6.85 6.85 0 0 0-.6 1.23 3.76 3.76 0 0 0-.25 1.24 1 1 0 0 0 .48.92 3.29 3.29 0 0 0 2.1.39 16.05 16.05 0 0 0 2.83-.51 24.66 24.66 0 0 0 2.86-1q1.37-.55 2.15-.91l.83-.32a.89.89 0 0 1 .85.07c.25.17.34.35.26.55a3.18 3.18 0 0 1-.32.6 1.41 1.41 0 0 1-.41.38 5.28 5.28 0 0 1-.65.36l-.69.3-.55.21q-1 .4-2.54.89a23.17 23.17 0 0 1-3.14.76 15.76 15.76 0 0 1-3.12.24A4.68 4.68 0 0 1 9 24.17a2.82 2.82 0 0 1-1.33-1.89 6 6 0 0 1 .09-2.38 10 10 0 0 1 .91-2.43q.63-1.18 1.18-2a15.37 15.37 0 0 1 1.81-2.19 25.2 25.2 0 0 1 2.06-1.92 6.24 6.24 0 0 1 2.06-1.1 2.64 2.64 0 0 1 2.25.49.9.9 0 0 1 .32 1.4 4.3 4.3 0 0 1-.72.8q-.47.42-1 .84l-1.1.84q-.55.42-.94.76A19.58 19.58 0 0 0 12 18.51q-.26.34-.61.92zm12-12.78a1.83 1.83 0 0 1-.3 1.24 2.49 2.49 0 0 1-1.44 1A1.94 1.94 0 0 1 20 8.68a1.36 1.36 0 0 1-.65-1.06 1.89 1.89 0 0 1 .32-1.22 2.58 2.58 0 0 1 1.41-1 1.86 1.86 0 0 1 1.69.2 1.42 1.42 0 0 1 .64 1.05z"/><path class="cls-10" d="M40.28 34a2.33 2.33 0 0 1-1.68.61h-2.27v-6.75h2.26a2.33 2.33 0 0 1 1.68.61 3.62 3.62 0 0 1 .65 2.66c.01.87.08 2.17-.64 2.87zm-.36-5.15a1.93 1.93 0 0 0-1.45-.52h-1.63v5.83h1.63a1.94 1.94 0 0 0 1.45-.52c.54-.55.5-1.74.5-2.49a3.35 3.35 0 0 0-.5-2.31zm3.58 5.75v-6.74h4.09v.45H44V31h3v.45h-3v2.72h3.58v.45zm8.1.05a2.84 2.84 0 0 1-2.24-.89l.36-.36a2.35 2.35 0 0 0 1.91.79c1.06 0 1.73-.51 1.73-1.39a1.22 1.22 0 0 0-.37-.95 1.63 1.63 0 0 0-1-.36l-.79-.12a2.33 2.33 0 0 1-1.2-.49 1.53 1.53 0 0 1-.53-1.24 1.84 1.84 0 0 1 2.09-1.85 2.66 2.66 0 0 1 1.94.73l-.33.33a2.19 2.19 0 0 0-1.64-.62 1.37 1.37 0 0 0-1.53 1.4 1.08 1.08 0 0 0 .35.88 2.15 2.15 0 0 0 1 .42l.73.11a2.15 2.15 0 0 1 1.2.44 1.66 1.66 0 0 1 .59 1.31c0 1.14-.87 1.86-2.27 1.86zm4.63-.05v-6.74h.51v6.74zm7.16-.72a2.4 2.4 0 0 1-3.45.08c-.61-.61-.62-1.21-.62-2.73s0-2.12.62-2.73a2.38 2.38 0 0 1 1.68-.69 2.61 2.61 0 0 1 2 .94l-.34.34a2.13 2.13 0 0 0-1.67-.82 1.79 1.79 0 0 0-1.28.52c-.48.48-.52 1-.52 2.45s0 2 .52 2.45a1.77 1.77 0 0 0 1.28.52 1.81 1.81 0 0 0 1.4-.65 1.94 1.94 0 0 0 .41-1.33v-.61h-1.8v-.45h2.32v1.1a2.2 2.2 0 0 1-.55 1.61zm7.48.72L67 28.74v5.86h-.51v-6.74H67l3.89 5.84v-5.84h.51v6.74zm8.07-2.79v2.79h-.51v-2.79l-2-3.95H77l1.71 3.41 1.68-3.41h.55zM86.45 34a2.4 2.4 0 0 1-3.37 0c-.62-.61-.62-1.21-.62-2.73s0-2.12.62-2.73a2.4 2.4 0 0 1 3.37 0c.61.62.62 1.21.62 2.73s0 2.08-.62 2.73zM86 28.78a1.83 1.83 0 0 0-2.55 0c-.48.48-.52 1-.52 2.45s0 2 .52 2.45a1.83 1.83 0 0 0 2.55 0c.48-.48.52-1 .52-2.45s.01-1.97-.52-2.45zm5.87 5.87a2.18 2.18 0 0 1-2.31-2.24v-4.55h.51v4.48a1.8 1.8 0 1 0 3.6 0v-4.48h.51v4.55a2.18 2.18 0 0 1-2.31 2.24zm9.02-.05l-1.61-3.1h-1.85v3.1h-.51v-6.74h2.56a1.82 1.82 0 0 1 .38 3.62l1.63 3.11zm-1.48-6.28h-2V31h2a1.37 1.37 0 1 0 0-2.73zM110.79 34a2.4 2.4 0 0 1-3.37 0c-.62-.61-.62-1.21-.62-2.73s0-2.12.62-2.73a2.4 2.4 0 0 1 3.37 0c.61.62.62 1.21.62 2.73s0 2.08-.62 2.73zm-.41-5.19a1.83 1.83 0 0 0-2.56 0c-.48.48-.52 1-.52 2.45s0 2 .52 2.45a1.83 1.83 0 0 0 2.56 0c.48-.48.52-1 .52-2.45s-.03-2-.52-2.48zm8.57 5.79h-.52l-1.59-5.87-1.59 5.87h-.52L113 27.86h.54l1.46 5.86 1.57-5.86h.53l1.57 5.86 1.42-5.86h.54zm8.05 0l-3.89-5.86v5.86h-.51v-6.74h.51L127 33.7v-5.84h.51v6.74zM49.64 22.26c-2.95 0-6.63-1.71-6.63-5.59v-5.84c0-3.89 3.69-5.59 6.63-5.59s6.11 1.56 6.44 4.7c0 .59-.2.72-.77.72h-2.37c-.52 0-.54-.47-.74-.77a2.61 2.61 0 0 0-2.56-1.19 2.45 2.45 0 0 0-2.75 2.48v5.15a2.43 2.43 0 0 0 2.75 2.48c1.34 0 2.4-.5 2.6-1.68.07-.49.12-.89.67-.89h2.43c.54 0 .74.25.74.84 0 3.18-3.37 5.18-6.44 5.18zm21.52-.37h-2.93a1.32 1.32 0 0 1-1.23-.74l-2.67-4a1.83 1.83 0 0 1-.27-1.26v-2c0-.45.15-.72.72-.72h.49a2.22 2.22 0 0 0 2.35-2 2.1 2.1 0 0 0-2.28-2.1H62v12.1c0 .57-.27.72-.72.72h-2.4c-.45 0-.69-.15-.69-.72V6.35c0-.45.12-.72.69-.72h6.24c2.7 0 3.89.54 4.93 1.58a5.39 5.39 0 0 1 1.44 3.89A5.33 5.33 0 0 1 68 16l3.49 5.08c.26.37.14.81-.33.81zm15.05-2.74v2c0 .45-.15.72-.72.72H74.4c-.57 0-.72-.27-.72-.72V6.32c0-.45.15-.72.72-.72h10.67c.57 0 .72.27.72.72v2.06c0 .45-.15.72-.72.72h-7.48v2.7h6.63c.57 0 .72.27.72.72v1.93c0 .45-.15.72-.72.72h-6.63v3.27h7.9c.57-.01.72.26.72.71zm15.59 2.74h-2.6c-.54 0-.74-.15-.94-.74l-.69-2H91.5l-.69 2c-.2.59-.4.74-.94.74h-2.6c-.54 0-.54-.4-.42-.69l5.5-14.83a1 1 0 0 1 1-.77h2.38c.54 0 .79.25 1 .77l5.47 14.83c.15.3.15.69-.4.69zm-5.4-6.16l-1.86-5.47-1.86 5.47zm17.66-9.41v2.06c0 .45-.15.72-.72.72h-3.79v12.07c0 .57-.27.72-.72.72h-2.45c-.45 0-.72-.15-.72-.72V9.09h-3.81c-.57 0-.72-.27-.72-.72V6.32c0-.45.15-.72.72-.72h11.49c.57 0 .72.28.72.72zm14.01 12.83v2c0 .45-.15.72-.72.72h-11.09c-.57 0-.72-.27-.72-.72V6.32c0-.45.15-.72.72-.72h10.67c.57 0 .72.27.72.72v2.06c0 .45-.15.72-.72.72h-7.48v2.7h6.63c.57 0 .72.27.72.72v1.93c0 .45-.15.72-.72.72h-6.63v3.27h7.9c.57-.01.72.26.72.71zM36.52 9.59v12c0 .57.27.72.72.72h2.45c.45 0 .72-.15.72-.72v-12z"/><circle class="cls-10" cx="38.46" cy="6.38" r="1.94"/><path class="cls-7" d="M36.34 24.93h15.31v.47H36.34z"/><path class="cls-4" d="M51.23 24.93h15.31v.47H51.23z"/><path class="cls-3" d="M66.54 24.93h15.31v.47H66.54z"/><path class="cls-2" d="M81.85 24.93h15.31v.47H81.85z"/><path class="cls-11" d="M97.06 24.93h15.31v.47H97.06z"/><path class="cls-6" d="M112.43 24.93h15.31v.47h-15.31z"/></g></g></svg>