<svg id="Layer_1" data-name="Layer 1" xmlns="http://www.w3.org/2000/svg" viewBox="0 0 11.34 11.34"><defs><style>.cls-1{fill:#34373c}</style></defs><title>instagram-ico</title><circle class="cls-1" cx="5.73" cy="5.68" r="1.16"/><path class="cls-1" d="M425.23 295h-3.07a1.29 1.29 0 0 0-1.28 1.28v3.07a1.29 1.29 0 0 0 1.28 1.28h3.07a1.29 1.29 0 0 0 1.28-1.28v-3.07a1.29 1.29 0 0 0-1.28-1.28zm-1.54 4.59a1.77 1.77 0 1 1 1.77-1.77 1.77 1.77 0 0 1-1.77 1.81zm2.16-3.29a.45.45 0 1 1 .15-.3.45.45 0 0 1-.15.34z" transform="translate(-417.96 -292.18)"/><path class="cls-1" d="M423.63 292.18a5.67 5.67 0 1 0 5.67 5.67 5.67 5.67 0 0 0-5.67-5.67zm3.49 7.22a1.89 1.89 0 0 1-1.89 1.89h-3.07a1.89 1.89 0 0 1-1.89-1.89v-3.07a1.89 1.89 0 0 1 1.89-1.89h3.07a1.89 1.89 0 0 1 1.89 1.89v3.07z" transform="translate(-417.96 -292.18)"/></svg>