<svg xmlns="http://www.w3.org/2000/svg" viewBox="0 0 151.7 41.49"><defs><style>.cls-1{fill:#34373c;}</style></defs><title>oneills-new-branding-wordmark</title><g id="Layer_2" data-name="Layer 2"><g id="Layer_1-2" data-name="Layer 1"><path class="cls-1" d="M0,27.17a14.26,14.26,0,0,1,1.18-5.9,13.59,13.59,0,0,1,3.23-4.51,14.16,14.16,0,0,1,4.83-2.9,17.24,17.24,0,0,1,5.92-1,17.28,17.28,0,0,1,5.92,1,14.35,14.35,0,0,1,4.83,2.9,13.59,13.59,0,0,1,3.23,4.51,14.42,14.42,0,0,1,1.18,5.9,14.34,14.34,0,0,1-1.18,5.89,13.53,13.53,0,0,1-3.23,4.52,14.35,14.35,0,0,1-4.83,2.9,17.28,17.28,0,0,1-5.92,1,17.24,17.24,0,0,1-5.92-1,14.16,14.16,0,0,1-4.83-2.9,13.53,13.53,0,0,1-3.23-4.52A14.18,14.18,0,0,1,0,27.17Zm8.42,0a7.07,7.07,0,0,0,1.77,5,6.46,6.46,0,0,0,5,1.91,6.46,6.46,0,0,0,5-1.91,7.07,7.07,0,0,0,1.77-5,7.07,7.07,0,0,0-1.77-5,6.46,6.46,0,0,0-5-1.91,6.46,6.46,0,0,0-5,1.91A7.07,7.07,0,0,0,8.42,27.17Z"/><path class="cls-1" d="M33,13.53H41.1v3.7h.11a6.94,6.94,0,0,1,1.12-1.57,8.41,8.41,0,0,1,1.74-1.4,9.64,9.64,0,0,1,2.3-1,9.36,9.36,0,0,1,2.81-.4,11.56,11.56,0,0,1,5.17,1,7.43,7.43,0,0,1,3.06,2.72,10.92,10.92,0,0,1,1.48,4.1,30.19,30.19,0,0,1,.4,5.11v15H50.87V27.45c0-.79,0-1.6-.09-2.44a7.55,7.55,0,0,0-.5-2.33A4.1,4.1,0,0,0,49,20.94a4,4,0,0,0-2.5-.68,5.21,5.21,0,0,0-2.64.59,4.05,4.05,0,0,0-1.55,1.58,6.44,6.44,0,0,0-.7,2.21,19.65,19.65,0,0,0-.17,2.59V40.81H33Z"/><path class="cls-1" d="M88.82,36.1a13.4,13.4,0,0,1-5.11,4,15.24,15.24,0,0,1-6.4,1.41,17.24,17.24,0,0,1-5.92-1,14.16,14.16,0,0,1-4.83-2.9,13.53,13.53,0,0,1-3.23-4.52,14.18,14.18,0,0,1-1.18-5.89,14.26,14.26,0,0,1,1.18-5.9,13.59,13.59,0,0,1,3.23-4.51,14.16,14.16,0,0,1,4.83-2.9,17.24,17.24,0,0,1,5.92-1,13.53,13.53,0,0,1,5.3,1,11.07,11.07,0,0,1,4,2.9,13.25,13.25,0,0,1,2.55,4.51,18.22,18.22,0,0,1,.9,5.9v2.64H70.57a6.67,6.67,0,0,0,2.19,3.84,6.18,6.18,0,0,0,4.16,1.44,6.33,6.33,0,0,0,3.51-.93,9.4,9.4,0,0,0,2.49-2.39Zm-7.13-12a4.85,4.85,0,0,0-1.41-3.65,5,5,0,0,0-3.76-1.51,6.33,6.33,0,0,0-2.47.45,6.08,6.08,0,0,0-1.82,1.15,5,5,0,0,0-1.18,1.62,5.48,5.48,0,0,0-.48,1.94Z"/><path class="cls-1" d="M92.41,4.94a4.74,4.74,0,0,1,1.43-3.46,4.89,4.89,0,0,1,6.91,0,4.74,4.74,0,0,1,1.43,3.46,4.74,4.74,0,0,1-1.43,3.45,4.89,4.89,0,0,1-6.91,0A4.74,4.74,0,0,1,92.41,4.94Zm.68,8.59h8.42V40.81H93.09Z"/><path class="cls-1" d="M105.44,0h8.42V40.81h-8.42Z"/><path class="cls-1" d="M117.79,0h8.42V40.81h-8.42Z"/><path class="cls-1" d="M145.47,21.56a6,6,0,0,0-4.89-2.31,4.59,4.59,0,0,0-2.08.51,1.8,1.8,0,0,0-1,1.74,1.58,1.58,0,0,0,1,1.49,13.73,13.73,0,0,0,2.64.84l3.43.79A13.23,13.23,0,0,1,148,25.93a7.64,7.64,0,0,1,2.64,2.45,7.29,7.29,0,0,1,1,4.12,7.69,7.69,0,0,1-1.15,4.35,8.86,8.86,0,0,1-3,2.76,13,13,0,0,1-4,1.46,24.16,24.16,0,0,1-4.44.42,21.57,21.57,0,0,1-5.78-.82,10.73,10.73,0,0,1-4.94-2.89l5.11-5.67a8.46,8.46,0,0,0,2.61,2.22,7.09,7.09,0,0,0,3.34.76,7.62,7.62,0,0,0,2.64-.43,1.55,1.55,0,0,0,1.18-1.54,1.72,1.72,0,0,0-1-1.6,11.88,11.88,0,0,0-2.64-.9l-3.42-.78a14.23,14.23,0,0,1-3.43-1.27,7.09,7.09,0,0,1-2.64-2.38,7.32,7.32,0,0,1-1-4.13,8.25,8.25,0,0,1,1-4.15A8.58,8.58,0,0,1,132.64,15a10.93,10.93,0,0,1,3.68-1.65,16.59,16.59,0,0,1,4.21-.54,19.89,19.89,0,0,1,5.44.79,10,10,0,0,1,4.66,2.81Z"/><path class="cls-1" d="M30.27,10.63a.25.25,0,0,0,0-.07A2.74,2.74,0,0,0,25.35,13a.16.16,0,0,1,0,.07l4.88,3.57Z"/></g></g></svg>